<svg width="88" height="33" viewBox="0 0 88 33" fill="none" xmlns="http://www.w3.org/2000/svg">
<g id="Layer_1" clip-path="url(#clip0_110_87)">
<path id="Vector" d="M50.5927 10.9645C50.7144 10.9614 50.836 10.9598 50.9577 10.9598C52.4289 10.9598 53.8676 11.2052 55.2382 11.6881C56.0379 11.97 56.9527 11.6216 57.3015 10.8648C57.694 10.0161 57.2593 9.03592 56.3785 8.72399C54.643 8.10646 52.8198 7.79453 50.9577 7.79453C46.0704 7.79453 41.6958 9.97014 38.7923 13.3792V12.4957C38.7923 12.4957 38.781 12.5099 38.7745 12.5179V10.6003C38.7745 10.0351 38.5685 9.55212 38.1581 9.14993C37.7461 8.74933 37.2514 8.54823 36.6739 8.54823C36.0965 8.54823 35.6066 8.74933 35.2109 9.14993C34.8151 9.55212 34.6172 10.0351 34.6172 10.6003V30.9963C34.6172 31.5616 34.8151 32.0382 35.2109 32.4246C35.6066 32.8109 36.0949 33.0041 36.6739 33.0041C37.253 33.0041 37.7461 32.8109 38.1581 32.4246C38.5685 32.0382 38.7745 31.5616 38.7745 30.9963V23.0096C38.7745 16.554 43.9813 11.1514 50.5927 10.9661V10.9645Z" fill="white"/>
<path id="Vector_2" d="M6.06977 17.3726C6.87431 17.6782 7.8086 17.9902 8.87591 18.3084C8.76561 17.9585 8.70722 17.5864 8.70722 17.2064C8.70722 16.1201 9.17923 15.1384 9.93186 14.4481C9.36415 14.2897 8.86131 14.1345 8.42336 13.9841C7.34146 13.612 6.44284 13.0926 5.72752 12.4229C5.37229 12.0903 5.10466 11.7072 4.92623 11.2749C4.92623 11.2733 4.92623 11.2717 4.92461 11.2701C5.34472 11.6612 5.91406 11.9035 6.54179 11.9035C7.8378 11.9035 8.88726 10.879 8.88726 9.61388C8.88726 8.34873 7.8378 7.32426 6.54179 7.32426C6.03084 7.32426 5.56045 7.48576 5.1744 7.75653C5.1744 7.75653 5.1744 7.75495 5.17603 7.75336C5.5491 7.09466 6.13141 6.53255 6.91486 6.06861C8.42336 5.17714 10.3795 4.73062 12.785 4.73062C15.3138 4.73062 17.7647 5.13281 20.141 5.9356C20.4443 6.05436 20.6893 6.11294 20.8709 6.11294C21.4192 6.11294 21.8604 5.91976 22.1961 5.53341C22.5303 5.14706 22.699 4.71637 22.699 4.23976C22.699 3.3483 22.2724 2.75451 21.4192 2.45683C18.7088 1.47511 15.6788 0.984253 12.3292 0.984253C9.83129 0.984253 7.69182 1.39436 5.91081 2.2114C4.12981 3.02844 2.78189 4.12892 1.86705 5.51124C0.953842 6.89357 0.498047 8.43265 0.498047 10.1269C0.498047 12.0603 1.0463 13.6041 2.14118 14.7647C3.23768 15.9238 4.54667 16.7931 6.06977 17.3726Z" fill="white"/>
<path id="Vector_3" d="M18.6551 16.8597C17.2618 16.3276 15.4548 15.7956 13.2375 15.262C13.1337 15.2366 13.0298 15.2113 12.9244 15.1876C12.8141 15.1701 12.7022 15.1606 12.587 15.1606C12.3908 15.1606 12.1994 15.1876 12.0193 15.2366C12.0161 15.2382 12.0112 15.2382 12.008 15.2398C11.132 15.4852 10.4913 16.2738 10.4913 17.2064C10.4913 18.1391 11.0785 18.8611 11.896 19.1382C11.9496 19.1524 12.0015 19.1651 12.055 19.1794C12.1101 19.1936 12.1637 19.2079 12.2172 19.2205C13.9966 19.6781 15.3737 20.074 16.3485 20.4049C17.3542 20.7469 18.1993 21.2156 18.8838 21.8094C19.1595 22.0485 19.3801 22.3114 19.544 22.598C19.0493 22.1166 18.368 21.8173 17.6121 21.8173C16.102 21.8173 14.8774 23.0128 14.8774 24.487C14.8774 25.9611 16.102 27.1582 17.6121 27.1582C18.1944 27.1582 18.7346 26.9809 19.1774 26.6768C18.0517 28.3378 15.6316 29.1676 11.9171 29.1676C8.72007 29.1676 5.71929 28.5595 2.91801 27.3403C2.64389 27.2215 2.35516 27.1614 2.05022 27.1614C1.50197 27.1614 1.05266 27.3466 0.7023 27.7187C0.351939 28.0908 0.176758 28.5294 0.176758 29.0345C0.176758 29.4209 0.298411 29.7851 0.54334 30.1271C0.786647 30.4691 1.09159 30.7146 1.45655 30.8634C4.83689 32.2901 8.46054 33.0026 12.3291 33.0026C14.6422 33.0026 16.6827 32.6305 18.4507 31.8879C20.2155 31.1452 21.5861 30.1113 22.561 28.7891C23.5358 27.467 24.0224 25.9722 24.0224 24.3065C24.0224 22.286 23.4985 20.6804 22.4474 19.4913C21.3963 18.3021 20.1328 17.4249 18.6551 16.8597Z" fill="white"/>
<path id="Vector_4" d="M28.7944 14.8804C28.2153 14.8804 27.7287 15.0815 27.3329 15.4821C26.9371 15.8827 26.7393 16.3672 26.7393 16.9309V30.9948C26.7393 31.5601 26.9371 32.0351 27.3329 32.4215C27.7287 32.8078 28.2153 33.001 28.7944 33.001C29.3735 33.001 29.8682 32.8078 30.2786 32.4215C30.6889 32.0351 30.8949 31.5601 30.8949 30.9948V16.9309C30.8949 16.3371 30.697 15.8463 30.3013 15.4599C29.9055 15.0735 29.4027 14.8804 28.7944 14.8804Z" fill="white"/>
<path id="Vector_5" d="M51.2401 18.2847C51.9927 18.2847 52.6269 18.3638 53.1233 18.5174C53.6342 18.6758 54.2603 18.9418 54.9805 19.3044C55.2757 19.4611 55.579 19.5419 55.8807 19.5419C56.3122 19.5419 56.695 19.3677 57.0178 19.0257C57.3325 18.69 57.493 18.3132 57.493 17.9015C57.493 17.314 57.2076 16.8216 56.6658 16.4764C55.9034 16.003 55.0665 15.6087 54.176 15.3031C53.2757 14.9943 52.1971 14.8391 50.9692 14.8391C49.2985 14.8391 47.7316 15.2081 46.3123 15.9333C44.8881 16.6632 43.7332 17.7257 42.8833 19.0922C42.0317 20.4587 41.5986 22.0833 41.5986 23.92C41.5986 25.7568 42.0301 27.3814 42.8817 28.7479C43.7332 30.1144 44.8865 31.1768 46.3107 31.9068C47.7283 32.6336 49.2952 33.0009 50.9676 33.0009C52.1955 33.0009 53.2741 32.8442 54.1743 32.537C55.0632 32.233 55.9002 31.8387 56.6658 31.3621C57.206 31.0201 57.4914 30.5276 57.4914 29.9386C57.4914 29.5285 57.3308 29.1501 57.0162 28.8144C56.6934 28.4724 56.3106 28.2982 55.8791 28.2982C55.5774 28.2982 55.2741 28.3774 54.9854 28.5325C54.2619 28.8967 53.6358 29.1627 53.1216 29.3227C52.6253 29.4778 51.9911 29.5554 51.2384 29.5554C49.3942 29.5554 47.9327 29.0361 46.8946 28.0116C45.8549 26.9871 45.3277 25.6095 45.3277 23.9185C45.3277 22.2274 45.8549 20.8498 46.8946 19.8253C47.9327 18.8009 49.3942 18.2815 51.2384 18.2815L51.2401 18.2847Z" fill="white"/>
<path id="Vector_6" d="M62.9038 0.00244141C62.3247 0.00244141 61.8381 0.203535 61.4423 0.60414C61.0465 1.00474 60.8486 1.48927 60.8486 2.05297V30.9947C60.8486 31.5599 61.0465 32.035 61.4423 32.4213C61.8381 32.8077 62.3247 33.0009 62.9038 33.0009C63.4828 33.0009 63.9776 32.8077 64.3879 32.4213C64.7999 32.035 65.0043 31.5599 65.0043 30.9947V2.05455C65.0043 1.46077 64.8064 0.969909 64.4106 0.583556C64.0149 0.197202 63.512 0.00402482 62.9038 0.00402482V0.00244141Z" fill="white"/>
<path id="Vector_7" d="M86.6658 23.1965C87.0064 22.8513 87.1767 22.4254 87.1767 21.9203C87.1767 20.1136 86.7956 18.4462 86.0332 16.9182C85.2708 15.3902 84.1549 14.1678 82.6853 13.2511C81.2157 12.3343 79.4736 11.8751 77.4591 11.8751C75.3082 11.8751 73.498 12.3675 72.0285 13.3492C70.5589 14.3325 69.4689 15.6214 68.7617 17.2159C68.0528 18.8104 67.6992 20.5506 67.6992 22.438C67.6992 25.787 68.6319 28.3838 70.4956 30.23C72.3594 32.0779 74.953 33.001 78.275 33.001C79.9084 33.001 81.2417 32.8553 82.2765 32.5624C83.3114 32.2695 84.3592 31.8325 85.4201 31.2466C86.1273 30.8476 86.4825 30.3567 86.4825 29.7708C86.4825 29.3196 86.3187 28.9475 85.9926 28.6545C85.6666 28.3616 85.2838 28.2159 84.8491 28.2159C84.5766 28.2159 84.3317 28.2698 84.1143 28.3759C83.2968 28.7749 82.4598 29.0805 81.6034 29.2927C80.7453 29.5064 79.7461 29.6109 78.6026 29.6109C76.4518 29.6109 74.7778 29.0931 73.5808 28.056C72.3821 27.0189 71.6749 25.5716 71.4575 23.7111H85.3C85.871 23.7111 86.3268 23.5385 86.6674 23.1933L86.6658 23.1965ZM71.4559 20.7644C71.537 19.4628 71.8776 18.3718 72.4761 17.4962C73.0747 16.619 73.8241 15.9745 74.7227 15.5628C75.6213 15.1512 76.5329 14.9453 77.4591 14.9453C78.3853 14.9453 79.2968 15.1512 80.1955 15.5628C81.0941 15.9745 81.8483 16.619 82.4614 17.4962C83.0746 18.3734 83.4217 19.4628 83.5028 20.7644H71.4575H71.4559Z" fill="white"/>
<path id="Vector_8" d="M30.3842 12.5652C31.2596 11.7107 31.2596 10.3251 30.3842 9.47053C29.5088 8.61596 28.0894 8.61596 27.214 9.47053C26.3386 10.3251 26.3386 11.7107 27.214 12.5652C28.0894 13.4198 29.5088 13.4198 30.3842 12.5652Z" fill="white"/>
</g>
<defs>
<clipPath id="clip0_110_87">
<rect width="87" height="33" fill="white" transform="translate(0.0332031)"/>
</clipPath>
</defs>
</svg>
